{
	"asset":{
		"generator":"Khronos glTF Blender I/O v5.1.19",
		"version":"2.0"
	},
	"scene":0,
	"scenes":[
		{
			"name":"Scene",
			"nodes":[
				0,
				1,
				2,
				3,
				4,
				5,
				6,
				7,
				8,
				9,
				10,
				11,
				12,
				13,
				14,
				15,
				16,
				17,
				18,
				19,
				20,
				21,
				22,
				23,
				24,
				25,
				26,
				27,
				28,
				29,
				30,
				31
			]
		}
	],
	"nodes":[
		{
			"mesh":0,
			"name":"Dachablauf_Kanal_terras",
			"rotation":[
				0.70710688829422,
				0,
				0,
				0.7071066498756409
			],
			"scale":[
				0.0009999871253967285,
				0.0009999872418120503,
				0.0009999872418120503
			]
		},
		{
			"mesh":1,
			"name":"Dachablauf_ablaufrohr_terras",
			"rotation":[
				0.70710688829422,
				0,
				0,
				0.7071066498756409
			],
			"scale":[
				0.0009999871253967285,
				0.0009999872418120503,
				0.0009999872418120503
			]
		},
		{
			"mesh":2,
			"name":"Dachablauf_Fallrohre",
			"rotation":[
				0.70710688829422,
				0,
				0,
				0.7071066498756409
			],
			"scale":[
				0.0009999871253967285,
				0.0009999872418120503,
				0.0009999872418120503
			]
		},
		{
			"mesh":3,
			"name":"Dachablauf_Rohr_001",
			"rotation":[
				0.70710688829422,
				0,
				0,
				0.7071066498756409
			],
			"scale":[
				0.0009999871253967285,
				0.0009999872418120503,
				0.0009999872418120503
			]
		},
		{
			"mesh":4,
			"name":"Dachablauf_Rohr_002",
			"rotation":[
				0.70710688829422,
				0,
				0,
				0.7071066498756409
			],
			"scale":[
				0.0009999871253967285,
				0.0009999872418120503,
				0.0009999872418120503
			]
		},
		{
			"mesh":5,
			"name":"Dachablauf_Kanal_gross",
			"rotation":[
				0.70710688829422,
				0,
				0,
				0.7071066498756409
			],
			"scale":[
				0.0009999871253967285,
				0.0009999872418120503,
				0.0009999872418120503
			]
		},
		{
			"mesh":6,
			"name":"Balkon_gelaender",
			"rotation":[
				0.70710688829422,
				0,
				0,
				0.7071066498756409
			],
			"scale":[
				0.0009999871253967285,
				0.0009999872418120503,
				0.0009999872418120503
			]
		},
		{
			"mesh":7,
			"name":"Dachstock",
			"rotation":[
				0.70710688829422,
				0,
				0,
				0.7071066498756409
			],
			"scale":[
				0.0009999871253967285,
				0.0009999872418120503,
				0.0009999872418120503
			]
		},
		{
			"mesh":8,
			"name":"Eingang_gelaender",
			"rotation":[
				0.70710688829422,
				0,
				0,
				0.7071066498756409
			],
			"scale":[
				0.0009999871253967285,
				0.0009999872418120503,
				0.0009999872418120503
			]
		},
		{
			"mesh":9,
			"name":"Waende_OG",
			"rotation":[
				0.70710688829422,
				0,
				0,
				0.7071066498756409
			],
			"scale":[
				0.0009999871253967285,
				0.0009999872418120503,
				0.0009999872418120503
			]
		},
		{
			"mesh":10,
			"name":"F_Rahmen",
			"rotation":[
				0.70710688829422,
				0,
				0,
				0.7071066498756409
			],
			"scale":[
				0.0009999871253967285,
				0.0009999872418120503,
				0.0009999872418120503
			]
		},
		{
			"mesh":11,
			"name":"Waende_EG",
			"rotation":[
				0.70710688829422,
				0,
				0,
				0.7071066498756409
			],
			"scale":[
				0.0009999871253967285,
				0.0009999872418120503,
				0.0009999872418120503
			]
		},
		{
			"name":"Doors",
			"rotation":[
				0.70710688829422,
				0,
				0,
				0.7071066498756409
			],
			"scale":[
				0.0009999871253967285,
				0.0009999872418120503,
				0.0009999872418120503
			]
		},
		{
			"mesh":12,
			"name":"T_Rahmen",
			"rotation":[
				0.70710688829422,
				0,
				0,
				0.7071066498756409
			],
			"scale":[
				0.0009999871253967285,
				0.0009999872418120503,
				0.0009999872418120503
			]
		},
		{
			"mesh":13,
			"name":"Treppe",
			"rotation":[
				0.70710688829422,
				0,
				0,
				0.7071066498756409
			],
			"scale":[
				0.0009999871253967285,
				0.0009999872418120503,
				0.0009999872418120503
			]
		},
		{
			"mesh":14,
			"name":"Sockel",
			"rotation":[
				0.70710688829422,
				0,
				0,
				0.7071066498756409
			],
			"scale":[
				0.0009999871253967285,
				0.0009999872418120503,
				0.0009999872418120503
			]
		},
		{
			"mesh":15,
			"name":"F_Glas",
			"rotation":[
				0.70710688829422,
				0,
				0,
				0.7071066498756409
			],
			"scale":[
				0.0009999871253967285,
				0.0009999872418120503,
				0.0009999872418120503
			]
		},
		{
			"mesh":16,
			"name":"Bodenplatte_OG",
			"rotation":[
				0.70710688829422,
				0,
				0,
				0.7071066498756409
			],
			"scale":[
				0.0009999871253967285,
				0.0009999872418120503,
				0.0009999872418120503
			]
		},
		{
			"mesh":17,
			"name":"Dach",
			"rotation":[
				0.70710688829422,
				0,
				0,
				0.7071066498756409
			],
			"scale":[
				0.0009999871253967285,
				0.0009999872418120503,
				0.0009999872418120503
			]
		},
		{
			"mesh":18,
			"name":"Waende_Terras",
			"rotation":[
				0.70710688829422,
				0,
				0,
				0.7071066498756409
			],
			"scale":[
				0.0009999871253967285,
				0.0009999872418120503,
				0.0009999872418120503
			]
		},
		{
			"mesh":19,
			"name":"Wege",
			"rotation":[
				0.70710688829422,
				0,
				0,
				0.7071066498756409
			],
			"scale":[
				0.0009999871253967285,
				0.0009999872418120503,
				0.0009999872418120503
			]
		},
		{
			"mesh":20,
			"name":"Platten_Eingang",
			"rotation":[
				0.70710688829422,
				0,
				0,
				0.7071066498756409
			],
			"scale":[
				0.0009999871253967285,
				0.0009999872418120503,
				0.0009999872418120503
			]
		},
		{
			"mesh":21,
			"name":"Platten_Terras",
			"rotation":[
				0.70710688829422,
				0,
				0,
				0.7071066498756409
			],
			"scale":[
				0.0009999871253967285,
				0.0009999872418120503,
				0.0009999872418120503
			]
		},
		{
			"mesh":22,
			"name":"Platten_H_Eingang",
			"rotation":[
				0.70710688829422,
				0,
				0,
				0.7071066498756409
			],
			"scale":[
				0.0009999871253967285,
				0.0009999872418120503,
				0.0009999872418120503
			]
		},
		{
			"mesh":23,
			"name":"Front_Door",
			"rotation":[
				0.70710688829422,
				0,
				0,
				0.7071066498756409
			],
			"scale":[
				0.0009999871253967285,
				0.0009999872418120503,
				0.0009999872418120503
			]
		},
		{
			"mesh":24,
			"name":"Back_Door",
			"rotation":[
				0.70710688829422,
				0,
				0,
				0.7071066498756409
			],
			"scale":[
				0.0009999871253967285,
				0.0009999872418120503,
				0.0009999872418120503
			]
		},
		{
			"mesh":25,
			"name":"Side_Door",
			"rotation":[
				0.70710688829422,
				0,
				0,
				0.7071066498756409
			],
			"scale":[
				0.0009999871253967285,
				0.0009999872418120503,
				0.0009999872418120503
			]
		},
		{
			"mesh":26,
			"name":"Inner_Door",
			"rotation":[
				0.70710688829422,
				0,
				0,
				0.7071066498756409
			],
			"scale":[
				0.0009999871253967285,
				0.0009999872418120503,
				0.0009999872418120503
			]
		},
		{
			"mesh":27,
			"name":"Top_Left_Door",
			"rotation":[
				0.70710688829422,
				0,
				0,
				0.7071066498756409
			],
			"scale":[
				0.0009999871253967285,
				0.0009999872418120503,
				0.0009999872418120503
			]
		},
		{
			"mesh":28,
			"name":"Top_Right_Door",
			"rotation":[
				0.70710688829422,
				0,
				0,
				0.7071066498756409
			],
			"scale":[
				0.0009999871253967285,
				0.0009999872418120503,
				0.0009999872418120503
			]
		},
		{
			"mesh":29,
			"name":"Top_Inner_Door_Left",
			"rotation":[
				0.70710688829422,
				0,
				0,
				0.7071066498756409
			],
			"scale":[
				0.0009999871253967285,
				0.0009999872418120503,
				0.0009999872418120503
			]
		},
		{
			"mesh":30,
			"name":"Top_Inner_Door_Right",
			"rotation":[
				0.70710688829422,
				0,
				0,
				0.7071066498756409
			],
			"scale":[
				0.0009999871253967285,
				0.0009999872418120503,
				0.0009999872418120503
			]
		}
	],
	"meshes":[
		{
			"name":"Dachablauf_Kanal_terras",
			"primitives":[
				{
					"attributes":{
						"POSITION":0,
						"NORMAL":1
					},
					"indices":2
				}
			]
		},
		{
			"name":"Dachablauf_ablaufrohr_terras",
			"primitives":[
				{
					"attributes":{
						"POSITION":3,
						"NORMAL":4
					},
					"indices":5
				}
			]
		},
		{
			"name":"Dachablauf_Fallrohre",
			"primitives":[
				{
					"attributes":{
						"POSITION":6,
						"NORMAL":7
					},
					"indices":8
				}
			]
		},
		{
			"name":"Dachablauf_Rohr_001",
			"primitives":[
				{
					"attributes":{
						"POSITION":9,
						"NORMAL":10
					},
					"indices":11
				}
			]
		},
		{
			"name":"Dachablauf_Rohr_002",
			"primitives":[
				{
					"attributes":{
						"POSITION":12,
						"NORMAL":13
					},
					"indices":14
				}
			]
		},
		{
			"name":"Dachablauf_Kanal_gross",
			"primitives":[
				{
					"attributes":{
						"POSITION":15,
						"NORMAL":16
					},
					"indices":17
				}
			]
		},
		{
			"name":"Balkon_gelaender",
			"primitives":[
				{
					"attributes":{
						"POSITION":18,
						"NORMAL":19
					},
					"indices":20
				}
			]
		},
		{
			"name":"Dachstock",
			"primitives":[
				{
					"attributes":{
						"POSITION":21,
						"NORMAL":22
					},
					"indices":23
				}
			]
		},
		{
			"name":"Eingang_gelaender",
			"primitives":[
				{
					"attributes":{
						"POSITION":24,
						"NORMAL":25
					},
					"indices":26
				}
			]
		},
		{
			"name":"Waende_OG",
			"primitives":[
				{
					"attributes":{
						"POSITION":27,
						"NORMAL":28,
						"TEXCOORD_0":29
					},
					"indices":30
				}
			]
		},
		{
			"name":"F_Rahmen",
			"primitives":[
				{
					"attributes":{
						"POSITION":31,
						"NORMAL":32
					},
					"indices":33
				}
			]
		},
		{
			"name":"Waende_EG",
			"primitives":[
				{
					"attributes":{
						"POSITION":34,
						"NORMAL":35,
						"TEXCOORD_0":36
					},
					"indices":37
				}
			]
		},
		{
			"name":"T_Rahmen",
			"primitives":[
				{
					"attributes":{
						"POSITION":38,
						"NORMAL":39
					},
					"indices":40
				}
			]
		},
		{
			"name":"Treppe",
			"primitives":[
				{
					"attributes":{
						"POSITION":41,
						"NORMAL":42
					},
					"indices":43
				}
			]
		},
		{
			"name":"Sockel",
			"primitives":[
				{
					"attributes":{
						"POSITION":44,
						"NORMAL":45
					},
					"indices":46
				}
			]
		},
		{
			"name":"F_Glas",
			"primitives":[
				{
					"attributes":{
						"POSITION":47,
						"NORMAL":48
					},
					"indices":49
				}
			]
		},
		{
			"name":"Bodenplatte_OG",
			"primitives":[
				{
					"attributes":{
						"POSITION":50,
						"NORMAL":51
					},
					"indices":52
				}
			]
		},
		{
			"name":"Dach",
			"primitives":[
				{
					"attributes":{
						"POSITION":53,
						"NORMAL":54,
						"TEXCOORD_0":55
					},
					"indices":56
				}
			]
		},
		{
			"name":"Waende_Terras",
			"primitives":[
				{
					"attributes":{
						"POSITION":57,
						"NORMAL":58
					},
					"indices":59
				}
			]
		},
		{
			"name":"Wege",
			"primitives":[
				{
					"attributes":{
						"POSITION":60,
						"NORMAL":61
					},
					"indices":62
				}
			]
		},
		{
			"name":"Platten_Eingang",
			"primitives":[
				{
					"attributes":{
						"POSITION":63,
						"NORMAL":64
					},
					"indices":65
				}
			]
		},
		{
			"name":"Platten_Terras",
			"primitives":[
				{
					"attributes":{
						"POSITION":66,
						"NORMAL":67
					},
					"indices":68
				}
			]
		},
		{
			"name":"Platten_H_Eingang",
			"primitives":[
				{
					"attributes":{
						"POSITION":69,
						"NORMAL":70
					},
					"indices":71
				}
			]
		},
		{
			"name":"Doors.001",
			"primitives":[
				{
					"attributes":{
						"POSITION":72,
						"NORMAL":73,
						"TEXCOORD_0":74
					},
					"indices":75
				}
			]
		},
		{
			"name":"Doors.002",
			"primitives":[
				{
					"attributes":{
						"POSITION":76,
						"NORMAL":77,
						"TEXCOORD_0":78
					},
					"indices":79
				}
			]
		},
		{
			"name":"Doors.003",
			"primitives":[
				{
					"attributes":{
						"POSITION":80,
						"NORMAL":81
					},
					"indices":82
				}
			]
		},
		{
			"name":"Doors.004",
			"primitives":[
				{
					"attributes":{
						"POSITION":83,
						"NORMAL":84
					},
					"indices":85
				}
			]
		},
		{
			"name":"Doors.005",
			"primitives":[
				{
					"attributes":{
						"POSITION":86,
						"NORMAL":87
					},
					"indices":88
				}
			]
		},
		{
			"name":"Doors.006",
			"primitives":[
				{
					"attributes":{
						"POSITION":89,
						"NORMAL":90
					},
					"indices":91
				}
			]
		},
		{
			"name":"Doors.007",
			"primitives":[
				{
					"attributes":{
						"POSITION":92,
						"NORMAL":93
					},
					"indices":94
				}
			]
		},
		{
			"name":"Doors.008",
			"primitives":[
				{
					"attributes":{
						"POSITION":95,
						"NORMAL":96
					},
					"indices":94
				}
			]
		}
	],
	"accessors":[
		{
			"bufferView":0,
			"componentType":5126,
			"count":637857,
			"max":[
				-3366.02099609375,
				4045.660888671875,
				5675.50732421875
			],
			"min":[
				-7484.31884765625,
				3938.00732421875,
				528.8299560546875
			],
			"type":"VEC3"
		},
		{
			"bufferView":1,
			"componentType":5126,
			"count":637857,
			"type":"VEC3"
		},
		{
			"bufferView":2,
			"componentType":5125,
			"count":1347420,
			"type":"SCALAR"
		},
		{
			"bufferView":3,
			"componentType":5126,
			"count":501694,
			"max":[
				-3263.8388671875,
				6294.8212890625,
				5970.44482421875
			],
			"min":[
				-4442.923828125,
				-5.0395121574401855,
				5261.990234375
			],
			"type":"VEC3"
		},
		{
			"bufferView":4,
			"componentType":5126,
			"count":501694,
			"type":"VEC3"
		},
		{
			"bufferView":5,
			"componentType":5125,
			"count":1021674,
			"type":"SCALAR"
		},
		{
			"bufferView":6,
			"componentType":5126,
			"count":58317,
			"max":[
				7940.701171875,
				6320,
				5970.78271484375
			],
			"min":[
				-8193.478515625,
				-20.33349609375,
				-6052.3984375
			],
			"type":"VEC3"
		},
		{
			"bufferView":7,
			"componentType":5126,
			"count":58317,
			"type":"VEC3"
		},
		{
			"bufferView":8,
			"componentType":5123,
			"count":99378,
			"type":"SCALAR"
		},
		{
			"bufferView":9,
			"componentType":5126,
			"count":19692,
			"max":[
				-3206,
				6294.48583984375,
				5970.78271484375
			],
			"min":[
				-4442.7001953125,
				-5,
				5046.0009765625
			],
			"type":"VEC3"
		},
		{
			"bufferView":10,
			"componentType":5126,
			"count":19692,
			"type":"VEC3"
		},
		{
			"bufferView":11,
			"componentType":5123,
			"count":33432,
			"type":"SCALAR"
		},
		{
			"bufferView":12,
			"componentType":5126,
			"count":9297,
			"max":[
				7940.701171875,
				6320,
				5970.78173828125
			],
			"min":[
				6966,
				-5,
				4886.00048828125
			],
			"type":"VEC3"
		},
		{
			"bufferView":13,
			"componentType":5126,
			"count":9297,
			"type":"VEC3"
		},
		{
			"bufferView":14,
			"componentType":5123,
			"count":16212,
			"type":"SCALAR"
		},
		{
			"bufferView":15,
			"componentType":5126,
			"count":7209,
			"max":[
				7948.9013671875,
				6320,
				5978.982421875
			],
			"min":[
				-8200.3896484375,
				6268.7998046875,
				-6281.31005859375
			],
			"type":"VEC3"
		},
		{
			"bufferView":16,
			"componentType":5126,
			"count":7209,
			"type":"VEC3"
		},
		{
			"bufferView":17,
			"componentType":5123,
			"count":8940,
			"type":"SCALAR"
		},
		{
			"bufferView":18,
			"componentType":5126,
			"count":1407,
			"max":[
				-5249,
				6650,
				479
			],
			"min":[
				-6899,
				4065,
				-3979
			],
			"type":"VEC3"
		},
		{
			"bufferView":19,
			"componentType":5126,
			"count":1407,
			"type":"VEC3"
		},
		{
			"bufferView":20,
			"componentType":5123,
			"count":3312,
			"type":"SCALAR"
		},
		{
			"bufferView":21,
			"componentType":5126,
			"count":1231,
			"max":[
				6949,
				9371.298828125,
				5029
			],
			"min":[
				-7749.701171875,
				3907.12060546875,
				-5029
			],
			"type":"VEC3"
		},
		{
			"bufferView":22,
			"componentType":5126,
			"count":1231,
			"type":"VEC3"
		},
		{
			"bufferView":23,
			"componentType":5123,
			"count":2316,
			"type":"SCALAR"
		},
		{
			"bufferView":24,
			"componentType":5126,
			"count":897,
			"max":[
				6899,
				3850,
				4979
			],
			"min":[
				4319,
				680,
				3429
			],
			"type":"VEC3"
		},
		{
			"bufferView":25,
			"componentType":5126,
			"count":897,
			"type":"VEC3"
		},
		{
			"bufferView":26,
			"componentType":5123,
			"count":1872,
			"type":"SCALAR"
		},
		{
			"bufferView":27,
			"componentType":5126,
			"count":718,
			"max":[
				6949,
				9194.47265625,
				5039
			],
			"min":[
				-5259,
				4050,
				-5039
			],
			"type":"VEC3"
		},
		{
			"bufferView":28,
			"componentType":5126,
			"count":718,
			"type":"VEC3"
		},
		{
			"bufferView":29,
			"componentType":5126,
			"count":718,
			"type":"VEC2"
		},
		{
			"bufferView":30,
			"componentType":5123,
			"count":1596,
			"type":"SCALAR"
		},
		{
			"bufferView":31,
			"componentType":5126,
			"count":732,
			"max":[
				6839,
				6250,
				5009
			],
			"min":[
				-6929,
				700,
				-4919
			],
			"type":"VEC3"
		},
		{
			"bufferView":32,
			"componentType":5126,
			"count":732,
			"type":"VEC3"
		},
		{
			"bufferView":33,
			"componentType":5123,
			"count":1536,
			"type":"SCALAR"
		},
		{
			"bufferView":34,
			"componentType":5126,
			"count":660,
			"max":[
				6959,
				3850,
				5039
			],
			"min":[
				-6959,
				670,
				-5039
			],
			"type":"VEC3"
		},
		{
			"bufferView":35,
			"componentType":5126,
			"count":660,
			"type":"VEC3"
		},
		{
			"bufferView":36,
			"componentType":5126,
			"count":660,
			"type":"VEC2"
		},
		{
			"bufferView":37,
			"componentType":5123,
			"count":1440,
			"type":"SCALAR"
		},
		{
			"bufferView":38,
			"componentType":5126,
			"count":432,
			"max":[
				3724,
				6175,
				3319
			],
			"min":[
				-3229,
				670,
				-4039
			],
			"type":"VEC3"
		},
		{
			"bufferView":39,
			"componentType":5126,
			"count":432,
			"type":"VEC3"
		},
		{
			"bufferView":40,
			"componentType":5123,
			"count":864,
			"type":"SCALAR"
		},
		{
			"bufferView":41,
			"componentType":5126,
			"count":432,
			"max":[
				1659,
				4050,
				-1381
			],
			"min":[
				-659,
				839.4445190429688,
				-4639
			],
			"type":"VEC3"
		},
		{
			"bufferView":42,
			"componentType":5126,
			"count":432,
			"type":"VEC3"
		},
		{
			"bufferView":43,
			"componentType":5123,
			"count":852,
			"type":"SCALAR"
		},
		{
			"bufferView":44,
			"componentType":5126,
			"count":376,
			"max":[
				6949,
				690,
				6629
			],
			"min":[
				-8149,
				0,
				-5053.60888671875
			],
			"type":"VEC3"
		},
		{
			"bufferView":45,
			"componentType":5126,
			"count":376,
			"type":"VEC3"
		},
		{
			"bufferView":46,
			"componentType":5123,
			"count":738,
			"type":"SCALAR"
		},
		{
			"bufferView":47,
			"componentType":5126,
			"count":432,
			"max":[
				6809,
				6200,
				4989
			],
			"min":[
				-6909,
				742,
				-4889
			],
			"type":"VEC3"
		},
		{
			"bufferView":48,
			"componentType":5126,
			"count":432,
			"type":"VEC3"
		},
		{
			"bufferView":49,
			"componentType":5123,
			"count":648,
			"type":"SCALAR"
		},
		{
			"bufferView":50,
			"componentType":5126,
			"count":298,
			"max":[
				6949,
				4060,
				5029
			],
			"min":[
				-6949,
				3850,
				-5039
			],
			"type":"VEC3"
		},
		{
			"bufferView":51,
			"componentType":5126,
			"count":298,
			"type":"VEC3"
		},
		{
			"bufferView":52,
			"componentType":5123,
			"count":582,
			"type":"SCALAR"
		},
		{
			"bufferView":53,
			"componentType":5126,
			"count":183,
			"max":[
				7847.701171875,
				9551.298828125,
				5877.78271484375
			],
			"min":[
				-8099.189453125,
				3979.432373046875,
				-6180.109375
			],
			"type":"VEC3"
		},
		{
			"bufferView":54,
			"componentType":5126,
			"count":183,
			"type":"VEC3"
		},
		{
			"bufferView":55,
			"componentType":5126,
			"count":183,
			"type":"VEC2"
		},
		{
			"bufferView":56,
			"componentType":5123,
			"count":327,
			"type":"SCALAR"
		},
		{
			"bufferView":57,
			"componentType":5126,
			"count":120,
			"max":[
				-3349,
				4050,
				5029
			],
			"min":[
				-6949,
				670,
				529
			],
			"type":"VEC3"
		},
		{
			"bufferView":58,
			"componentType":5126,
			"count":120,
			"type":"VEC3"
		},
		{
			"bufferView":59,
			"componentType":5123,
			"count":264,
			"type":"SCALAR"
		},
		{
			"bufferView":60,
			"componentType":5126,
			"count":128,
			"max":[
				8649,
				5,
				12000
			],
			"min":[
				-9349,
				0,
				-6753.60888671875
			],
			"type":"VEC3"
		},
		{
			"bufferView":61,
			"componentType":5126,
			"count":128,
			"type":"VEC3"
		},
		{
			"bufferView":62,
			"componentType":5123,
			"count":240,
			"type":"SCALAR"
		},
		{
			"bufferView":63,
			"componentType":5126,
			"count":120,
			"max":[
				6949,
				680,
				6629
			],
			"min":[
				2049,
				167.5,
				3429
			],
			"type":"VEC3"
		},
		{
			"bufferView":64,
			"componentType":5126,
			"count":120,
			"type":"VEC3"
		},
		{
			"bufferView":65,
			"componentType":5123,
			"count":192,
			"type":"SCALAR"
		},
		{
			"bufferView":66,
			"componentType":5126,
			"count":120,
			"max":[
				-3349,
				680,
				4929
			],
			"min":[
				-8149,
				167.5,
				629
			],
			"type":"VEC3"
		},
		{
			"bufferView":67,
			"componentType":5126,
			"count":120,
			"type":"VEC3"
		},
		{
			"bufferView":68,
			"componentType":5123,
			"count":180,
			"type":"SCALAR"
		},
		{
			"bufferView":69,
			"componentType":5126,
			"count":100,
			"max":[
				3930.4091796875,
				680,
				-4029
			],
			"min":[
				2049,
				167.5,
				-5053.60888671875
			],
			"type":"VEC3"
		},
		{
			"bufferView":70,
			"componentType":5126,
			"count":100,
			"type":"VEC3"
		},
		{
			"bufferView":71,
			"componentType":5123,
			"count":156,
			"type":"SCALAR"
		},
		{
			"bufferView":72,
			"componentType":5126,
			"count":148,
			"max":[
				3479,
				2880,
				3319
			],
			"min":[
				2459,
				760,
				3249
			],
			"type":"VEC3"
		},
		{
			"bufferView":73,
			"componentType":5126,
			"count":148,
			"type":"VEC3"
		},
		{
			"bufferView":74,
			"componentType":5126,
			"count":148,
			"type":"VEC2"
		},
		{
			"bufferView":75,
			"componentType":5123,
			"count":276,
			"type":"SCALAR"
		},
		{
			"bufferView":76,
			"componentType":5126,
			"count":147,
			"max":[
				3409,
				2805,
				-3959
			],
			"min":[
				2389,
				695,
				-4029
			],
			"type":"VEC3"
		},
		{
			"bufferView":77,
			"componentType":5126,
			"count":147,
			"type":"VEC3"
		},
		{
			"bufferView":78,
			"componentType":5126,
			"count":147,
			"type":"VEC2"
		},
		{
			"bufferView":79,
			"componentType":5123,
			"count":276,
			"type":"SCALAR"
		},
		{
			"bufferView":80,
			"componentType":5126,
			"count":144,
			"max":[
				-3159,
				2705,
				1629
			],
			"min":[
				-3229,
				685,
				769
			],
			"type":"VEC3"
		},
		{
			"bufferView":81,
			"componentType":5126,
			"count":144,
			"type":"VEC3"
		},
		{
			"bufferView":82,
			"componentType":5123,
			"count":276,
			"type":"SCALAR"
		},
		{
			"bufferView":83,
			"componentType":5126,
			"count":120,
			"max":[
				3469,
				2960,
				559
			],
			"min":[
				2469,
				680,
				484
			],
			"type":"VEC3"
		},
		{
			"bufferView":84,
			"componentType":5126,
			"count":120,
			"type":"VEC3"
		},
		{
			"bufferView":85,
			"componentType":5123,
			"count":228,
			"type":"SCALAR"
		},
		{
			"bufferView":86,
			"componentType":5126,
			"count":24,
			"max":[
				-979,
				6105,
				-161
			],
			"min":[
				-1019,
				4085,
				-1061
			],
			"type":"VEC3"
		},
		{
			"bufferView":87,
			"componentType":5126,
			"count":24,
			"type":"VEC3"
		},
		{
			"bufferView":88,
			"componentType":5123,
			"count":36,
			"type":"SCALAR"
		},
		{
			"bufferView":89,
			"componentType":5126,
			"count":24,
			"max":[
				3704,
				6105,
				-161
			],
			"min":[
				3664,
				4085,
				-1061
			],
			"type":"VEC3"
		},
		{
			"bufferView":90,
			"componentType":5126,
			"count":24,
			"type":"VEC3"
		},
		{
			"bufferView":91,
			"componentType":5123,
			"count":36,
			"type":"SCALAR"
		},
		{
			"bufferView":92,
			"componentType":5126,
			"count":24,
			"max":[
				1409,
				6105,
				184
			],
			"min":[
				509,
				4085,
				144
			],
			"type":"VEC3"
		},
		{
			"bufferView":93,
			"componentType":5126,
			"count":24,
			"type":"VEC3"
		},
		{
			"bufferView":94,
			"componentType":5123,
			"count":36,
			"type":"SCALAR"
		},
		{
			"bufferView":95,
			"componentType":5126,
			"count":24,
			"max":[
				3279,
				6105,
				184
			],
			"min":[
				2379,
				4085,
				144
			],
			"type":"VEC3"
		},
		{
			"bufferView":96,
			"componentType":5126,
			"count":24,
			"type":"VEC3"
		}
	],
	"bufferViews":[
		{
			"buffer":0,
			"byteLength":7654284,
			"byteOffset":0,
			"target":34962
		},
		{
			"buffer":0,
			"byteLength":7654284,
			"byteOffset":7654284,
			"target":34962
		},
		{
			"buffer":0,
			"byteLength":5389680,
			"byteOffset":15308568,
			"target":34963
		},
		{
			"buffer":0,
			"byteLength":6020328,
			"byteOffset":20698248,
			"target":34962
		},
		{
			"buffer":0,
			"byteLength":6020328,
			"byteOffset":26718576,
			"target":34962
		},
		{
			"buffer":0,
			"byteLength":4086696,
			"byteOffset":32738904,
			"target":34963
		},
		{
			"buffer":0,
			"byteLength":699804,
			"byteOffset":36825600,
			"target":34962
		},
		{
			"buffer":0,
			"byteLength":699804,
			"byteOffset":37525404,
			"target":34962
		},
		{
			"buffer":0,
			"byteLength":198756,
			"byteOffset":38225208,
			"target":34963
		},
		{
			"buffer":0,
			"byteLength":236304,
			"byteOffset":38423964,
			"target":34962
		},
		{
			"buffer":0,
			"byteLength":236304,
			"byteOffset":38660268,
			"target":34962
		},
		{
			"buffer":0,
			"byteLength":66864,
			"byteOffset":38896572,
			"target":34963
		},
		{
			"buffer":0,
			"byteLength":111564,
			"byteOffset":38963436,
			"target":34962
		},
		{
			"buffer":0,
			"byteLength":111564,
			"byteOffset":39075000,
			"target":34962
		},
		{
			"buffer":0,
			"byteLength":32424,
			"byteOffset":39186564,
			"target":34963
		},
		{
			"buffer":0,
			"byteLength":86508,
			"byteOffset":39218988,
			"target":34962
		},
		{
			"buffer":0,
			"byteLength":86508,
			"byteOffset":39305496,
			"target":34962
		},
		{
			"buffer":0,
			"byteLength":17880,
			"byteOffset":39392004,
			"target":34963
		},
		{
			"buffer":0,
			"byteLength":16884,
			"byteOffset":39409884,
			"target":34962
		},
		{
			"buffer":0,
			"byteLength":16884,
			"byteOffset":39426768,
			"target":34962
		},
		{
			"buffer":0,
			"byteLength":6624,
			"byteOffset":39443652,
			"target":34963
		},
		{
			"buffer":0,
			"byteLength":14772,
			"byteOffset":39450276,
			"target":34962
		},
		{
			"buffer":0,
			"byteLength":14772,
			"byteOffset":39465048,
			"target":34962
		},
		{
			"buffer":0,
			"byteLength":4632,
			"byteOffset":39479820,
			"target":34963
		},
		{
			"buffer":0,
			"byteLength":10764,
			"byteOffset":39484452,
			"target":34962
		},
		{
			"buffer":0,
			"byteLength":10764,
			"byteOffset":39495216,
			"target":34962
		},
		{
			"buffer":0,
			"byteLength":3744,
			"byteOffset":39505980,
			"target":34963
		},
		{
			"buffer":0,
			"byteLength":8616,
			"byteOffset":39509724,
			"target":34962
		},
		{
			"buffer":0,
			"byteLength":8616,
			"byteOffset":39518340,
			"target":34962
		},
		{
			"buffer":0,
			"byteLength":5744,
			"byteOffset":39526956,
			"target":34962
		},
		{
			"buffer":0,
			"byteLength":3192,
			"byteOffset":39532700,
			"target":34963
		},
		{
			"buffer":0,
			"byteLength":8784,
			"byteOffset":39535892,
			"target":34962
		},
		{
			"buffer":0,
			"byteLength":8784,
			"byteOffset":39544676,
			"target":34962
		},
		{
			"buffer":0,
			"byteLength":3072,
			"byteOffset":39553460,
			"target":34963
		},
		{
			"buffer":0,
			"byteLength":7920,
			"byteOffset":39556532,
			"target":34962
		},
		{
			"buffer":0,
			"byteLength":7920,
			"byteOffset":39564452,
			"target":34962
		},
		{
			"buffer":0,
			"byteLength":5280,
			"byteOffset":39572372,
			"target":34962
		},
		{
			"buffer":0,
			"byteLength":2880,
			"byteOffset":39577652,
			"target":34963
		},
		{
			"buffer":0,
			"byteLength":5184,
			"byteOffset":39580532,
			"target":34962
		},
		{
			"buffer":0,
			"byteLength":5184,
			"byteOffset":39585716,
			"target":34962
		},
		{
			"buffer":0,
			"byteLength":1728,
			"byteOffset":39590900,
			"target":34963
		},
		{
			"buffer":0,
			"byteLength":5184,
			"byteOffset":39592628,
			"target":34962
		},
		{
			"buffer":0,
			"byteLength":5184,
			"byteOffset":39597812,
			"target":34962
		},
		{
			"buffer":0,
			"byteLength":1704,
			"byteOffset":39602996,
			"target":34963
		},
		{
			"buffer":0,
			"byteLength":4512,
			"byteOffset":39604700,
			"target":34962
		},
		{
			"buffer":0,
			"byteLength":4512,
			"byteOffset":39609212,
			"target":34962
		},
		{
			"buffer":0,
			"byteLength":1476,
			"byteOffset":39613724,
			"target":34963
		},
		{
			"buffer":0,
			"byteLength":5184,
			"byteOffset":39615200,
			"target":34962
		},
		{
			"buffer":0,
			"byteLength":5184,
			"byteOffset":39620384,
			"target":34962
		},
		{
			"buffer":0,
			"byteLength":1296,
			"byteOffset":39625568,
			"target":34963
		},
		{
			"buffer":0,
			"byteLength":3576,
			"byteOffset":39626864,
			"target":34962
		},
		{
			"buffer":0,
			"byteLength":3576,
			"byteOffset":39630440,
			"target":34962
		},
		{
			"buffer":0,
			"byteLength":1164,
			"byteOffset":39634016,
			"target":34963
		},
		{
			"buffer":0,
			"byteLength":2196,
			"byteOffset":39635180,
			"target":34962
		},
		{
			"buffer":0,
			"byteLength":2196,
			"byteOffset":39637376,
			"target":34962
		},
		{
			"buffer":0,
			"byteLength":1464,
			"byteOffset":39639572,
			"target":34962
		},
		{
			"buffer":0,
			"byteLength":654,
			"byteOffset":39641036,
			"target":34963
		},
		{
			"buffer":0,
			"byteLength":1440,
			"byteOffset":39641692,
			"target":34962
		},
		{
			"buffer":0,
			"byteLength":1440,
			"byteOffset":39643132,
			"target":34962
		},
		{
			"buffer":0,
			"byteLength":528,
			"byteOffset":39644572,
			"target":34963
		},
		{
			"buffer":0,
			"byteLength":1536,
			"byteOffset":39645100,
			"target":34962
		},
		{
			"buffer":0,
			"byteLength":1536,
			"byteOffset":39646636,
			"target":34962
		},
		{
			"buffer":0,
			"byteLength":480,
			"byteOffset":39648172,
			"target":34963
		},
		{
			"buffer":0,
			"byteLength":1440,
			"byteOffset":39648652,
			"target":34962
		},
		{
			"buffer":0,
			"byteLength":1440,
			"byteOffset":39650092,
			"target":34962
		},
		{
			"buffer":0,
			"byteLength":384,
			"byteOffset":39651532,
			"target":34963
		},
		{
			"buffer":0,
			"byteLength":1440,
			"byteOffset":39651916,
			"target":34962
		},
		{
			"buffer":0,
			"byteLength":1440,
			"byteOffset":39653356,
			"target":34962
		},
		{
			"buffer":0,
			"byteLength":360,
			"byteOffset":39654796,
			"target":34963
		},
		{
			"buffer":0,
			"byteLength":1200,
			"byteOffset":39655156,
			"target":34962
		},
		{
			"buffer":0,
			"byteLength":1200,
			"byteOffset":39656356,
			"target":34962
		},
		{
			"buffer":0,
			"byteLength":312,
			"byteOffset":39657556,
			"target":34963
		},
		{
			"buffer":0,
			"byteLength":1776,
			"byteOffset":39657868,
			"target":34962
		},
		{
			"buffer":0,
			"byteLength":1776,
			"byteOffset":39659644,
			"target":34962
		},
		{
			"buffer":0,
			"byteLength":1184,
			"byteOffset":39661420,
			"target":34962
		},
		{
			"buffer":0,
			"byteLength":552,
			"byteOffset":39662604,
			"target":34963
		},
		{
			"buffer":0,
			"byteLength":1764,
			"byteOffset":39663156,
			"target":34962
		},
		{
			"buffer":0,
			"byteLength":1764,
			"byteOffset":39664920,
			"target":34962
		},
		{
			"buffer":0,
			"byteLength":1176,
			"byteOffset":39666684,
			"target":34962
		},
		{
			"buffer":0,
			"byteLength":552,
			"byteOffset":39667860,
			"target":34963
		},
		{
			"buffer":0,
			"byteLength":1728,
			"byteOffset":39668412,
			"target":34962
		},
		{
			"buffer":0,
			"byteLength":1728,
			"byteOffset":39670140,
			"target":34962
		},
		{
			"buffer":0,
			"byteLength":552,
			"byteOffset":39671868,
			"target":34963
		},
		{
			"buffer":0,
			"byteLength":1440,
			"byteOffset":39672420,
			"target":34962
		},
		{
			"buffer":0,
			"byteLength":1440,
			"byteOffset":39673860,
			"target":34962
		},
		{
			"buffer":0,
			"byteLength":456,
			"byteOffset":39675300,
			"target":34963
		},
		{
			"buffer":0,
			"byteLength":288,
			"byteOffset":39675756,
			"target":34962
		},
		{
			"buffer":0,
			"byteLength":288,
			"byteOffset":39676044,
			"target":34962
		},
		{
			"buffer":0,
			"byteLength":72,
			"byteOffset":39676332,
			"target":34963
		},
		{
			"buffer":0,
			"byteLength":288,
			"byteOffset":39676404,
			"target":34962
		},
		{
			"buffer":0,
			"byteLength":288,
			"byteOffset":39676692,
			"target":34962
		},
		{
			"buffer":0,
			"byteLength":72,
			"byteOffset":39676980,
			"target":34963
		},
		{
			"buffer":0,
			"byteLength":288,
			"byteOffset":39677052,
			"target":34962
		},
		{
			"buffer":0,
			"byteLength":288,
			"byteOffset":39677340,
			"target":34962
		},
		{
			"buffer":0,
			"byteLength":72,
			"byteOffset":39677628,
			"target":34963
		},
		{
			"buffer":0,
			"byteLength":288,
			"byteOffset":39677700,
			"target":34962
		},
		{
			"buffer":0,
			"byteLength":288,
			"byteOffset":39677988,
			"target":34962
		}
	],
	"buffers":[
		{
			"byteLength":39678276,
			"uri":"house_new.bin"
		}
	]
}
