{
	"asset":{
		"generator":"Khronos glTF Blender I/O v4.5.47",
		"version":"2.0"
	},
	"scene":0,
	"scenes":[
		{
			"name":"Scene",
			"nodes":[
				0,
				1,
				2,
				3,
				4,
				5,
				6,
				7,
				8,
				9,
				10,
				11,
				12,
				13,
				14,
				15,
				16,
				17,
				18,
				19,
				20,
				21,
				22,
				23,
				24,
				25,
				26,
				27,
				28,
				29,
				30,
				31,
				32
			]
		}
	],
	"nodes":[
		{
			"mesh":0,
			"name":"Dachablauf_Kanal_terras",
			"rotation":[
				0.70710688829422,
				0,
				0,
				0.7071066498756409
			],
			"scale":[
				0.0009999871253967285,
				0.0009999872418120503,
				0.0009999872418120503
			]
		},
		{
			"mesh":1,
			"name":"Dachablauf_ablaufrohr_terras",
			"rotation":[
				0.70710688829422,
				0,
				0,
				0.7071066498756409
			],
			"scale":[
				0.0009999871253967285,
				0.0009999872418120503,
				0.0009999872418120503
			]
		},
		{
			"mesh":2,
			"name":"Dachablauf_Fallrohre",
			"rotation":[
				0.70710688829422,
				0,
				0,
				0.7071066498756409
			],
			"scale":[
				0.0009999871253967285,
				0.0009999872418120503,
				0.0009999872418120503
			]
		},
		{
			"mesh":3,
			"name":"Dachablauf_Rohr_001",
			"rotation":[
				0.70710688829422,
				0,
				0,
				0.7071066498756409
			],
			"scale":[
				0.0009999871253967285,
				0.0009999872418120503,
				0.0009999872418120503
			]
		},
		{
			"mesh":4,
			"name":"mauer",
			"rotation":[
				0.70710688829422,
				0,
				0,
				0.7071066498756409
			],
			"scale":[
				0.0009999871253967285,
				0.0009999872418120503,
				0.0009999872418120503
			]
		},
		{
			"mesh":5,
			"name":"Dachablauf_Rohr_002",
			"rotation":[
				0.70710688829422,
				0,
				0,
				0.7071066498756409
			],
			"scale":[
				0.0009999871253967285,
				0.0009999872418120503,
				0.0009999872418120503
			]
		},
		{
			"mesh":6,
			"name":"Dachablauf_Kanal_gross",
			"rotation":[
				0.70710688829422,
				0,
				0,
				0.7071066498756409
			],
			"scale":[
				0.0009999871253967285,
				0.0009999872418120503,
				0.0009999872418120503
			]
		},
		{
			"mesh":7,
			"name":"Balkon_gelaender",
			"rotation":[
				0.70710688829422,
				0,
				0,
				0.7071066498756409
			],
			"scale":[
				0.0009999871253967285,
				0.0009999872418120503,
				0.0009999872418120503
			]
		},
		{
			"mesh":8,
			"name":"Dachstock",
			"rotation":[
				0.70710688829422,
				0,
				0,
				0.7071066498756409
			],
			"scale":[
				0.0009999871253967285,
				0.0009999872418120503,
				0.0009999872418120503
			]
		},
		{
			"mesh":9,
			"name":"Eingang_gelaender",
			"rotation":[
				0.70710688829422,
				0,
				0,
				0.7071066498756409
			],
			"scale":[
				0.0009999871253967285,
				0.0009999872418120503,
				0.0009999872418120503
			]
		},
		{
			"mesh":10,
			"name":"Waende_OG",
			"rotation":[
				0.70710688829422,
				0,
				0,
				0.7071066498756409
			],
			"scale":[
				0.0009999871253967285,
				0.0009999872418120503,
				0.0009999872418120503
			]
		},
		{
			"mesh":11,
			"name":"F_Rahmen",
			"rotation":[
				0.70710688829422,
				0,
				0,
				0.7071066498756409
			],
			"scale":[
				0.0009999871253967285,
				0.0009999872418120503,
				0.0009999872418120503
			]
		},
		{
			"mesh":12,
			"name":"Waende_EG",
			"rotation":[
				0.70710688829422,
				0,
				0,
				0.7071066498756409
			],
			"scale":[
				0.0009999871253967285,
				0.0009999872418120503,
				0.0009999872418120503
			]
		},
		{
			"name":"Doors",
			"rotation":[
				0.70710688829422,
				0,
				0,
				0.7071066498756409
			],
			"scale":[
				0.0009999871253967285,
				0.0009999872418120503,
				0.0009999872418120503
			]
		},
		{
			"mesh":13,
			"name":"T_Rahmen",
			"rotation":[
				0.70710688829422,
				0,
				0,
				0.7071066498756409
			],
			"scale":[
				0.0009999871253967285,
				0.0009999872418120503,
				0.0009999872418120503
			]
		},
		{
			"mesh":14,
			"name":"Treppe",
			"rotation":[
				0.70710688829422,
				0,
				0,
				0.7071066498756409
			],
			"scale":[
				0.0009999871253967285,
				0.0009999872418120503,
				0.0009999872418120503
			]
		},
		{
			"mesh":15,
			"name":"Sockel",
			"rotation":[
				0.70710688829422,
				0,
				0,
				0.7071066498756409
			],
			"scale":[
				0.0009999871253967285,
				0.0009999872418120503,
				0.0009999872418120503
			]
		},
		{
			"mesh":16,
			"name":"F_Glas",
			"rotation":[
				0.70710688829422,
				0,
				0,
				0.7071066498756409
			],
			"scale":[
				0.0009999871253967285,
				0.0009999872418120503,
				0.0009999872418120503
			]
		},
		{
			"mesh":17,
			"name":"Bodenplatte_OG",
			"rotation":[
				0.70710688829422,
				0,
				0,
				0.7071066498756409
			],
			"scale":[
				0.0009999871253967285,
				0.0009999872418120503,
				0.0009999872418120503
			]
		},
		{
			"mesh":18,
			"name":"Dach",
			"rotation":[
				0.70710688829422,
				0,
				0,
				0.7071066498756409
			],
			"scale":[
				0.0009999871253967285,
				0.0009999872418120503,
				0.0009999872418120503
			]
		},
		{
			"mesh":19,
			"name":"Waende_Terras",
			"rotation":[
				0.70710688829422,
				0,
				0,
				0.7071066498756409
			],
			"scale":[
				0.0009999871253967285,
				0.0009999872418120503,
				0.0009999872418120503
			]
		},
		{
			"mesh":20,
			"name":"Wege",
			"rotation":[
				0.70710688829422,
				0,
				0,
				0.7071066498756409
			],
			"scale":[
				0.0009999871253967285,
				0.0009999872418120503,
				0.0009999872418120503
			]
		},
		{
			"mesh":21,
			"name":"Platten_Eingang",
			"rotation":[
				0.70710688829422,
				0,
				0,
				0.7071066498756409
			],
			"scale":[
				0.0009999871253967285,
				0.0009999872418120503,
				0.0009999872418120503
			]
		},
		{
			"mesh":22,
			"name":"Platten_Terras",
			"rotation":[
				0.70710688829422,
				0,
				0,
				0.7071066498756409
			],
			"scale":[
				0.0009999871253967285,
				0.0009999872418120503,
				0.0009999872418120503
			]
		},
		{
			"mesh":23,
			"name":"Platten_H_Eingang",
			"rotation":[
				0.70710688829422,
				0,
				0,
				0.7071066498756409
			],
			"scale":[
				0.0009999871253967285,
				0.0009999872418120503,
				0.0009999872418120503
			]
		},
		{
			"mesh":24,
			"name":"Front_Door",
			"rotation":[
				0.70710688829422,
				0,
				0,
				0.7071066498756409
			],
			"scale":[
				0.0009999871253967285,
				0.0009999872418120503,
				0.0009999872418120503
			]
		},
		{
			"mesh":25,
			"name":"Back_Door",
			"rotation":[
				0.70710688829422,
				0,
				0,
				0.7071066498756409
			],
			"scale":[
				0.0009999871253967285,
				0.0009999872418120503,
				0.0009999872418120503
			]
		},
		{
			"mesh":26,
			"name":"Side_Door",
			"rotation":[
				0.70710688829422,
				0,
				0,
				0.7071066498756409
			],
			"scale":[
				0.0009999871253967285,
				0.0009999872418120503,
				0.0009999872418120503
			]
		},
		{
			"mesh":27,
			"name":"Inner_Door",
			"rotation":[
				0.70710688829422,
				0,
				0,
				0.7071066498756409
			],
			"scale":[
				0.0009999871253967285,
				0.0009999872418120503,
				0.0009999872418120503
			]
		},
		{
			"mesh":28,
			"name":"Top_Left_Door",
			"rotation":[
				0.70710688829422,
				0,
				0,
				0.7071066498756409
			],
			"scale":[
				0.0009999871253967285,
				0.0009999872418120503,
				0.0009999872418120503
			]
		},
		{
			"mesh":29,
			"name":"Top_Right_Door",
			"rotation":[
				0.70710688829422,
				0,
				0,
				0.7071066498756409
			],
			"scale":[
				0.0009999871253967285,
				0.0009999872418120503,
				0.0009999872418120503
			]
		},
		{
			"mesh":30,
			"name":"Top_Inner_Door_Left",
			"rotation":[
				0.70710688829422,
				0,
				0,
				0.7071066498756409
			],
			"scale":[
				0.0009999871253967285,
				0.0009999872418120503,
				0.0009999872418120503
			]
		},
		{
			"mesh":31,
			"name":"Top_Inner_Door_Right",
			"rotation":[
				0.70710688829422,
				0,
				0,
				0.7071066498756409
			],
			"scale":[
				0.0009999871253967285,
				0.0009999872418120503,
				0.0009999872418120503
			]
		}
	],
	"meshes":[
		{
			"name":"Dachablauf_Kanal_terras",
			"primitives":[
				{
					"attributes":{
						"POSITION":0,
						"NORMAL":1
					},
					"indices":2
				}
			]
		},
		{
			"name":"Dachablauf_ablaufrohr_terras",
			"primitives":[
				{
					"attributes":{
						"POSITION":3,
						"NORMAL":4
					},
					"indices":5
				}
			]
		},
		{
			"name":"Dachablauf_Fallrohre",
			"primitives":[
				{
					"attributes":{
						"POSITION":6,
						"NORMAL":7
					},
					"indices":8
				}
			]
		},
		{
			"name":"Dachablauf_Rohr_001",
			"primitives":[
				{
					"attributes":{
						"POSITION":9,
						"NORMAL":10
					},
					"indices":11
				}
			]
		},
		{
			"name":"mauer",
			"primitives":[
				{
					"attributes":{
						"POSITION":12,
						"NORMAL":13
					},
					"indices":14
				}
			]
		},
		{
			"name":"Dachablauf_Rohr_002",
			"primitives":[
				{
					"attributes":{
						"POSITION":15,
						"NORMAL":16
					},
					"indices":17
				}
			]
		},
		{
			"name":"Dachablauf_Kanal_gross",
			"primitives":[
				{
					"attributes":{
						"POSITION":18,
						"NORMAL":19
					},
					"indices":20
				}
			]
		},
		{
			"name":"Balkon_gelaender",
			"primitives":[
				{
					"attributes":{
						"POSITION":21,
						"NORMAL":22
					},
					"indices":23
				}
			]
		},
		{
			"name":"Dachstock",
			"primitives":[
				{
					"attributes":{
						"POSITION":24,
						"NORMAL":25
					},
					"indices":26
				}
			]
		},
		{
			"name":"Eingang_gelaender",
			"primitives":[
				{
					"attributes":{
						"POSITION":27,
						"NORMAL":28
					},
					"indices":29
				}
			]
		},
		{
			"name":"Waende_OG",
			"primitives":[
				{
					"attributes":{
						"POSITION":30,
						"NORMAL":31,
						"TEXCOORD_0":32
					},
					"indices":33
				}
			]
		},
		{
			"name":"F_Rahmen",
			"primitives":[
				{
					"attributes":{
						"POSITION":34,
						"NORMAL":35
					},
					"indices":36
				}
			]
		},
		{
			"name":"Waende_EG",
			"primitives":[
				{
					"attributes":{
						"POSITION":37,
						"NORMAL":38,
						"TEXCOORD_0":39
					},
					"indices":40
				}
			]
		},
		{
			"name":"T_Rahmen",
			"primitives":[
				{
					"attributes":{
						"POSITION":41,
						"NORMAL":42
					},
					"indices":43
				}
			]
		},
		{
			"name":"Treppe",
			"primitives":[
				{
					"attributes":{
						"POSITION":44,
						"NORMAL":45
					},
					"indices":46
				}
			]
		},
		{
			"name":"Sockel",
			"primitives":[
				{
					"attributes":{
						"POSITION":47,
						"NORMAL":48
					},
					"indices":49
				}
			]
		},
		{
			"name":"F_Glas",
			"primitives":[
				{
					"attributes":{
						"POSITION":50,
						"NORMAL":51
					},
					"indices":52
				}
			]
		},
		{
			"name":"Bodenplatte_OG",
			"primitives":[
				{
					"attributes":{
						"POSITION":53,
						"NORMAL":54
					},
					"indices":55
				}
			]
		},
		{
			"name":"Dach",
			"primitives":[
				{
					"attributes":{
						"POSITION":56,
						"NORMAL":57,
						"TEXCOORD_0":58
					},
					"indices":59
				}
			]
		},
		{
			"name":"Waende_Terras",
			"primitives":[
				{
					"attributes":{
						"POSITION":60,
						"NORMAL":61
					},
					"indices":62
				}
			]
		},
		{
			"name":"Wege",
			"primitives":[
				{
					"attributes":{
						"POSITION":63,
						"NORMAL":64
					},
					"indices":65
				}
			]
		},
		{
			"name":"Platten_Eingang",
			"primitives":[
				{
					"attributes":{
						"POSITION":66,
						"NORMAL":67
					},
					"indices":68
				}
			]
		},
		{
			"name":"Platten_Terras",
			"primitives":[
				{
					"attributes":{
						"POSITION":69,
						"NORMAL":70
					},
					"indices":71
				}
			]
		},
		{
			"name":"Platten_H_Eingang",
			"primitives":[
				{
					"attributes":{
						"POSITION":72,
						"NORMAL":73
					},
					"indices":74
				}
			]
		},
		{
			"name":"Doors.001",
			"primitives":[
				{
					"attributes":{
						"POSITION":75,
						"NORMAL":76,
						"TEXCOORD_0":77
					},
					"indices":78
				}
			]
		},
		{
			"name":"Doors.002",
			"primitives":[
				{
					"attributes":{
						"POSITION":79,
						"NORMAL":80,
						"TEXCOORD_0":81
					},
					"indices":82
				}
			]
		},
		{
			"name":"Doors.003",
			"primitives":[
				{
					"attributes":{
						"POSITION":83,
						"NORMAL":84
					},
					"indices":85
				}
			]
		},
		{
			"name":"Doors.004",
			"primitives":[
				{
					"attributes":{
						"POSITION":86,
						"NORMAL":87
					},
					"indices":88
				}
			]
		},
		{
			"name":"Doors.005",
			"primitives":[
				{
					"attributes":{
						"POSITION":89,
						"NORMAL":90
					},
					"indices":91
				}
			]
		},
		{
			"name":"Doors.006",
			"primitives":[
				{
					"attributes":{
						"POSITION":92,
						"NORMAL":93
					},
					"indices":94
				}
			]
		},
		{
			"name":"Doors.007",
			"primitives":[
				{
					"attributes":{
						"POSITION":95,
						"NORMAL":96
					},
					"indices":97
				}
			]
		},
		{
			"name":"Doors.008",
			"primitives":[
				{
					"attributes":{
						"POSITION":98,
						"NORMAL":99
					},
					"indices":97
				}
			]
		}
	],
	"accessors":[
		{
			"bufferView":0,
			"componentType":5126,
			"count":927073,
			"max":[
				-3366.02099609375,
				4045.660888671875,
				5675.5068359375
			],
			"min":[
				-7484.31787109375,
				3938.007568359375,
				528.8299560546875
			],
			"type":"VEC3"
		},
		{
			"bufferView":1,
			"componentType":5126,
			"count":927073,
			"type":"VEC3"
		},
		{
			"bufferView":2,
			"componentType":5125,
			"count":1347420,
			"type":"SCALAR"
		},
		{
			"bufferView":3,
			"componentType":5126,
			"count":713049,
			"max":[
				-3263.83837890625,
				6294.82080078125,
				5970.4443359375
			],
			"min":[
				-4442.923828125,
				-5.0395121574401855,
				5261.990234375
			],
			"type":"VEC3"
		},
		{
			"bufferView":4,
			"componentType":5126,
			"count":713049,
			"type":"VEC3"
		},
		{
			"bufferView":5,
			"componentType":5125,
			"count":1021674,
			"type":"SCALAR"
		},
		{
			"bufferView":6,
			"componentType":5126,
			"count":82234,
			"max":[
				7940.701171875,
				6320,
				5970.78271484375
			],
			"min":[
				-8193.4775390625,
				-20.33349609375,
				-6052.3984375
			],
			"type":"VEC3"
		},
		{
			"bufferView":7,
			"componentType":5126,
			"count":82234,
			"type":"VEC3"
		},
		{
			"bufferView":8,
			"componentType":5125,
			"count":99378,
			"type":"SCALAR"
		},
		{
			"bufferView":9,
			"componentType":5126,
			"count":27159,
			"max":[
				-3206,
				6294.4853515625,
				5970.78271484375
			],
			"min":[
				-4442.7001953125,
				-5,
				5046.0009765625
			],
			"type":"VEC3"
		},
		{
			"bufferView":10,
			"componentType":5126,
			"count":27159,
			"type":"VEC3"
		},
		{
			"bufferView":11,
			"componentType":5123,
			"count":33432,
			"type":"SCALAR"
		},
		{
			"bufferView":12,
			"componentType":5126,
			"count":11163,
			"max":[
				12020,
				1295.3590087890625,
				12020
			],
			"min":[
				-12020,
				0,
				-12020
			],
			"type":"VEC3"
		},
		{
			"bufferView":13,
			"componentType":5126,
			"count":11163,
			"type":"VEC3"
		},
		{
			"bufferView":14,
			"componentType":5123,
			"count":21588,
			"type":"SCALAR"
		},
		{
			"bufferView":15,
			"componentType":5126,
			"count":13455,
			"max":[
				7940.701171875,
				6320,
				5970.78173828125
			],
			"min":[
				6966,
				-5,
				4886.00048828125
			],
			"type":"VEC3"
		},
		{
			"bufferView":16,
			"componentType":5126,
			"count":13455,
			"type":"VEC3"
		},
		{
			"bufferView":17,
			"componentType":5123,
			"count":16212,
			"type":"SCALAR"
		},
		{
			"bufferView":18,
			"componentType":5126,
			"count":7592,
			"max":[
				7948.90087890625,
				6320,
				5978.982421875
			],
			"min":[
				-8200.3896484375,
				6268.7998046875,
				-6281.3095703125
			],
			"type":"VEC3"
		},
		{
			"bufferView":19,
			"componentType":5126,
			"count":7592,
			"type":"VEC3"
		},
		{
			"bufferView":20,
			"componentType":5123,
			"count":8940,
			"type":"SCALAR"
		},
		{
			"bufferView":21,
			"componentType":5126,
			"count":1407,
			"max":[
				-5249,
				6650,
				479
			],
			"min":[
				-6899,
				4065,
				-3979
			],
			"type":"VEC3"
		},
		{
			"bufferView":22,
			"componentType":5126,
			"count":1407,
			"type":"VEC3"
		},
		{
			"bufferView":23,
			"componentType":5123,
			"count":3312,
			"type":"SCALAR"
		},
		{
			"bufferView":24,
			"componentType":5126,
			"count":1217,
			"max":[
				6949,
				9371.2978515625,
				5029
			],
			"min":[
				-7749.701171875,
				3907.120361328125,
				-5029
			],
			"type":"VEC3"
		},
		{
			"bufferView":25,
			"componentType":5126,
			"count":1217,
			"type":"VEC3"
		},
		{
			"bufferView":26,
			"componentType":5123,
			"count":2316,
			"type":"SCALAR"
		},
		{
			"bufferView":27,
			"componentType":5126,
			"count":869,
			"max":[
				6899,
				3850,
				4979
			],
			"min":[
				4319,
				680,
				3429
			],
			"type":"VEC3"
		},
		{
			"bufferView":28,
			"componentType":5126,
			"count":869,
			"type":"VEC3"
		},
		{
			"bufferView":29,
			"componentType":5123,
			"count":1872,
			"type":"SCALAR"
		},
		{
			"bufferView":30,
			"componentType":5126,
			"count":718,
			"max":[
				6949,
				9194.47265625,
				5039
			],
			"min":[
				-5259,
				4050,
				-5039
			],
			"type":"VEC3"
		},
		{
			"bufferView":31,
			"componentType":5126,
			"count":718,
			"type":"VEC3"
		},
		{
			"bufferView":32,
			"componentType":5126,
			"count":718,
			"type":"VEC2"
		},
		{
			"bufferView":33,
			"componentType":5123,
			"count":1596,
			"type":"SCALAR"
		},
		{
			"bufferView":34,
			"componentType":5126,
			"count":732,
			"max":[
				6839,
				6250,
				5009
			],
			"min":[
				-6929,
				700,
				-4919
			],
			"type":"VEC3"
		},
		{
			"bufferView":35,
			"componentType":5126,
			"count":732,
			"type":"VEC3"
		},
		{
			"bufferView":36,
			"componentType":5123,
			"count":1536,
			"type":"SCALAR"
		},
		{
			"bufferView":37,
			"componentType":5126,
			"count":660,
			"max":[
				6959,
				3850,
				5039
			],
			"min":[
				-6959,
				670,
				-5039
			],
			"type":"VEC3"
		},
		{
			"bufferView":38,
			"componentType":5126,
			"count":660,
			"type":"VEC3"
		},
		{
			"bufferView":39,
			"componentType":5126,
			"count":660,
			"type":"VEC2"
		},
		{
			"bufferView":40,
			"componentType":5123,
			"count":1440,
			"type":"SCALAR"
		},
		{
			"bufferView":41,
			"componentType":5126,
			"count":432,
			"max":[
				3724,
				6175,
				3319
			],
			"min":[
				-3229,
				670,
				-4039
			],
			"type":"VEC3"
		},
		{
			"bufferView":42,
			"componentType":5126,
			"count":432,
			"type":"VEC3"
		},
		{
			"bufferView":43,
			"componentType":5123,
			"count":864,
			"type":"SCALAR"
		},
		{
			"bufferView":44,
			"componentType":5126,
			"count":432,
			"max":[
				1659,
				4050,
				-1381
			],
			"min":[
				-659,
				839.4444580078125,
				-4639
			],
			"type":"VEC3"
		},
		{
			"bufferView":45,
			"componentType":5126,
			"count":432,
			"type":"VEC3"
		},
		{
			"bufferView":46,
			"componentType":5123,
			"count":852,
			"type":"SCALAR"
		},
		{
			"bufferView":47,
			"componentType":5126,
			"count":376,
			"max":[
				6949,
				690,
				6629
			],
			"min":[
				-8149,
				0,
				-5053.60888671875
			],
			"type":"VEC3"
		},
		{
			"bufferView":48,
			"componentType":5126,
			"count":376,
			"type":"VEC3"
		},
		{
			"bufferView":49,
			"componentType":5123,
			"count":738,
			"type":"SCALAR"
		},
		{
			"bufferView":50,
			"componentType":5126,
			"count":432,
			"max":[
				6809,
				6200,
				4989
			],
			"min":[
				-6909,
				742,
				-4889
			],
			"type":"VEC3"
		},
		{
			"bufferView":51,
			"componentType":5126,
			"count":432,
			"type":"VEC3"
		},
		{
			"bufferView":52,
			"componentType":5123,
			"count":648,
			"type":"SCALAR"
		},
		{
			"bufferView":53,
			"componentType":5126,
			"count":298,
			"max":[
				6949,
				4060,
				5029
			],
			"min":[
				-6949,
				3850,
				-5039
			],
			"type":"VEC3"
		},
		{
			"bufferView":54,
			"componentType":5126,
			"count":298,
			"type":"VEC3"
		},
		{
			"bufferView":55,
			"componentType":5123,
			"count":582,
			"type":"SCALAR"
		},
		{
			"bufferView":56,
			"componentType":5126,
			"count":182,
			"max":[
				7847.701171875,
				9551.2978515625,
				5877.78271484375
			],
			"min":[
				-8099.189453125,
				3979.432373046875,
				-6180.109375
			],
			"type":"VEC3"
		},
		{
			"bufferView":57,
			"componentType":5126,
			"count":182,
			"type":"VEC3"
		},
		{
			"bufferView":58,
			"componentType":5126,
			"count":182,
			"type":"VEC2"
		},
		{
			"bufferView":59,
			"componentType":5123,
			"count":327,
			"type":"SCALAR"
		},
		{
			"bufferView":60,
			"componentType":5126,
			"count":120,
			"max":[
				-3349,
				4050,
				5029
			],
			"min":[
				-6949,
				670,
				529
			],
			"type":"VEC3"
		},
		{
			"bufferView":61,
			"componentType":5126,
			"count":120,
			"type":"VEC3"
		},
		{
			"bufferView":62,
			"componentType":5123,
			"count":264,
			"type":"SCALAR"
		},
		{
			"bufferView":63,
			"componentType":5126,
			"count":132,
			"max":[
				8649,
				5,
				12000
			],
			"min":[
				-9349,
				0,
				-6753.60888671875
			],
			"type":"VEC3"
		},
		{
			"bufferView":64,
			"componentType":5126,
			"count":132,
			"type":"VEC3"
		},
		{
			"bufferView":65,
			"componentType":5123,
			"count":240,
			"type":"SCALAR"
		},
		{
			"bufferView":66,
			"componentType":5126,
			"count":120,
			"max":[
				6949,
				680,
				6629
			],
			"min":[
				2049,
				167.5,
				3429
			],
			"type":"VEC3"
		},
		{
			"bufferView":67,
			"componentType":5126,
			"count":120,
			"type":"VEC3"
		},
		{
			"bufferView":68,
			"componentType":5123,
			"count":192,
			"type":"SCALAR"
		},
		{
			"bufferView":69,
			"componentType":5126,
			"count":120,
			"max":[
				-3349,
				680,
				4929
			],
			"min":[
				-8149,
				167.5,
				629
			],
			"type":"VEC3"
		},
		{
			"bufferView":70,
			"componentType":5126,
			"count":120,
			"type":"VEC3"
		},
		{
			"bufferView":71,
			"componentType":5123,
			"count":180,
			"type":"SCALAR"
		},
		{
			"bufferView":72,
			"componentType":5126,
			"count":100,
			"max":[
				3930.4091796875,
				680,
				-4029
			],
			"min":[
				2049,
				167.5,
				-5053.60888671875
			],
			"type":"VEC3"
		},
		{
			"bufferView":73,
			"componentType":5126,
			"count":100,
			"type":"VEC3"
		},
		{
			"bufferView":74,
			"componentType":5123,
			"count":156,
			"type":"SCALAR"
		},
		{
			"bufferView":75,
			"componentType":5126,
			"count":148,
			"max":[
				3479,
				2880,
				3319
			],
			"min":[
				2459,
				760,
				3249
			],
			"type":"VEC3"
		},
		{
			"bufferView":76,
			"componentType":5126,
			"count":148,
			"type":"VEC3"
		},
		{
			"bufferView":77,
			"componentType":5126,
			"count":148,
			"type":"VEC2"
		},
		{
			"bufferView":78,
			"componentType":5123,
			"count":276,
			"type":"SCALAR"
		},
		{
			"bufferView":79,
			"componentType":5126,
			"count":147,
			"max":[
				3409,
				2805,
				-3959
			],
			"min":[
				2389,
				695,
				-4029
			],
			"type":"VEC3"
		},
		{
			"bufferView":80,
			"componentType":5126,
			"count":147,
			"type":"VEC3"
		},
		{
			"bufferView":81,
			"componentType":5126,
			"count":147,
			"type":"VEC2"
		},
		{
			"bufferView":82,
			"componentType":5123,
			"count":276,
			"type":"SCALAR"
		},
		{
			"bufferView":83,
			"componentType":5126,
			"count":144,
			"max":[
				-3159,
				2705,
				1629
			],
			"min":[
				-3229,
				685,
				769
			],
			"type":"VEC3"
		},
		{
			"bufferView":84,
			"componentType":5126,
			"count":144,
			"type":"VEC3"
		},
		{
			"bufferView":85,
			"componentType":5123,
			"count":276,
			"type":"SCALAR"
		},
		{
			"bufferView":86,
			"componentType":5126,
			"count":120,
			"max":[
				3469,
				2960,
				559
			],
			"min":[
				2469,
				680,
				484
			],
			"type":"VEC3"
		},
		{
			"bufferView":87,
			"componentType":5126,
			"count":120,
			"type":"VEC3"
		},
		{
			"bufferView":88,
			"componentType":5123,
			"count":228,
			"type":"SCALAR"
		},
		{
			"bufferView":89,
			"componentType":5126,
			"count":24,
			"max":[
				-979,
				6105,
				-161
			],
			"min":[
				-1019,
				4085,
				-1061
			],
			"type":"VEC3"
		},
		{
			"bufferView":90,
			"componentType":5126,
			"count":24,
			"type":"VEC3"
		},
		{
			"bufferView":91,
			"componentType":5123,
			"count":36,
			"type":"SCALAR"
		},
		{
			"bufferView":92,
			"componentType":5126,
			"count":24,
			"max":[
				3704,
				6105,
				-161
			],
			"min":[
				3664,
				4085,
				-1061
			],
			"type":"VEC3"
		},
		{
			"bufferView":93,
			"componentType":5126,
			"count":24,
			"type":"VEC3"
		},
		{
			"bufferView":94,
			"componentType":5123,
			"count":36,
			"type":"SCALAR"
		},
		{
			"bufferView":95,
			"componentType":5126,
			"count":24,
			"max":[
				1409,
				6105,
				184
			],
			"min":[
				509,
				4085,
				144
			],
			"type":"VEC3"
		},
		{
			"bufferView":96,
			"componentType":5126,
			"count":24,
			"type":"VEC3"
		},
		{
			"bufferView":97,
			"componentType":5123,
			"count":36,
			"type":"SCALAR"
		},
		{
			"bufferView":98,
			"componentType":5126,
			"count":24,
			"max":[
				3279,
				6105,
				184
			],
			"min":[
				2379,
				4085,
				144
			],
			"type":"VEC3"
		},
		{
			"bufferView":99,
			"componentType":5126,
			"count":24,
			"type":"VEC3"
		}
	],
	"bufferViews":[
		{
			"buffer":0,
			"byteLength":11124876,
			"byteOffset":0,
			"target":34962
		},
		{
			"buffer":0,
			"byteLength":11124876,
			"byteOffset":11124876,
			"target":34962
		},
		{
			"buffer":0,
			"byteLength":5389680,
			"byteOffset":22249752,
			"target":34963
		},
		{
			"buffer":0,
			"byteLength":8556588,
			"byteOffset":27639432,
			"target":34962
		},
		{
			"buffer":0,
			"byteLength":8556588,
			"byteOffset":36196020,
			"target":34962
		},
		{
			"buffer":0,
			"byteLength":4086696,
			"byteOffset":44752608,
			"target":34963
		},
		{
			"buffer":0,
			"byteLength":986808,
			"byteOffset":48839304,
			"target":34962
		},
		{
			"buffer":0,
			"byteLength":986808,
			"byteOffset":49826112,
			"target":34962
		},
		{
			"buffer":0,
			"byteLength":397512,
			"byteOffset":50812920,
			"target":34963
		},
		{
			"buffer":0,
			"byteLength":325908,
			"byteOffset":51210432,
			"target":34962
		},
		{
			"buffer":0,
			"byteLength":325908,
			"byteOffset":51536340,
			"target":34962
		},
		{
			"buffer":0,
			"byteLength":66864,
			"byteOffset":51862248,
			"target":34963
		},
		{
			"buffer":0,
			"byteLength":133956,
			"byteOffset":51929112,
			"target":34962
		},
		{
			"buffer":0,
			"byteLength":133956,
			"byteOffset":52063068,
			"target":34962
		},
		{
			"buffer":0,
			"byteLength":43176,
			"byteOffset":52197024,
			"target":34963
		},
		{
			"buffer":0,
			"byteLength":161460,
			"byteOffset":52240200,
			"target":34962
		},
		{
			"buffer":0,
			"byteLength":161460,
			"byteOffset":52401660,
			"target":34962
		},
		{
			"buffer":0,
			"byteLength":32424,
			"byteOffset":52563120,
			"target":34963
		},
		{
			"buffer":0,
			"byteLength":91104,
			"byteOffset":52595544,
			"target":34962
		},
		{
			"buffer":0,
			"byteLength":91104,
			"byteOffset":52686648,
			"target":34962
		},
		{
			"buffer":0,
			"byteLength":17880,
			"byteOffset":52777752,
			"target":34963
		},
		{
			"buffer":0,
			"byteLength":16884,
			"byteOffset":52795632,
			"target":34962
		},
		{
			"buffer":0,
			"byteLength":16884,
			"byteOffset":52812516,
			"target":34962
		},
		{
			"buffer":0,
			"byteLength":6624,
			"byteOffset":52829400,
			"target":34963
		},
		{
			"buffer":0,
			"byteLength":14604,
			"byteOffset":52836024,
			"target":34962
		},
		{
			"buffer":0,
			"byteLength":14604,
			"byteOffset":52850628,
			"target":34962
		},
		{
			"buffer":0,
			"byteLength":4632,
			"byteOffset":52865232,
			"target":34963
		},
		{
			"buffer":0,
			"byteLength":10428,
			"byteOffset":52869864,
			"target":34962
		},
		{
			"buffer":0,
			"byteLength":10428,
			"byteOffset":52880292,
			"target":34962
		},
		{
			"buffer":0,
			"byteLength":3744,
			"byteOffset":52890720,
			"target":34963
		},
		{
			"buffer":0,
			"byteLength":8616,
			"byteOffset":52894464,
			"target":34962
		},
		{
			"buffer":0,
			"byteLength":8616,
			"byteOffset":52903080,
			"target":34962
		},
		{
			"buffer":0,
			"byteLength":5744,
			"byteOffset":52911696,
			"target":34962
		},
		{
			"buffer":0,
			"byteLength":3192,
			"byteOffset":52917440,
			"target":34963
		},
		{
			"buffer":0,
			"byteLength":8784,
			"byteOffset":52920632,
			"target":34962
		},
		{
			"buffer":0,
			"byteLength":8784,
			"byteOffset":52929416,
			"target":34962
		},
		{
			"buffer":0,
			"byteLength":3072,
			"byteOffset":52938200,
			"target":34963
		},
		{
			"buffer":0,
			"byteLength":7920,
			"byteOffset":52941272,
			"target":34962
		},
		{
			"buffer":0,
			"byteLength":7920,
			"byteOffset":52949192,
			"target":34962
		},
		{
			"buffer":0,
			"byteLength":5280,
			"byteOffset":52957112,
			"target":34962
		},
		{
			"buffer":0,
			"byteLength":2880,
			"byteOffset":52962392,
			"target":34963
		},
		{
			"buffer":0,
			"byteLength":5184,
			"byteOffset":52965272,
			"target":34962
		},
		{
			"buffer":0,
			"byteLength":5184,
			"byteOffset":52970456,
			"target":34962
		},
		{
			"buffer":0,
			"byteLength":1728,
			"byteOffset":52975640,
			"target":34963
		},
		{
			"buffer":0,
			"byteLength":5184,
			"byteOffset":52977368,
			"target":34962
		},
		{
			"buffer":0,
			"byteLength":5184,
			"byteOffset":52982552,
			"target":34962
		},
		{
			"buffer":0,
			"byteLength":1704,
			"byteOffset":52987736,
			"target":34963
		},
		{
			"buffer":0,
			"byteLength":4512,
			"byteOffset":52989440,
			"target":34962
		},
		{
			"buffer":0,
			"byteLength":4512,
			"byteOffset":52993952,
			"target":34962
		},
		{
			"buffer":0,
			"byteLength":1476,
			"byteOffset":52998464,
			"target":34963
		},
		{
			"buffer":0,
			"byteLength":5184,
			"byteOffset":52999940,
			"target":34962
		},
		{
			"buffer":0,
			"byteLength":5184,
			"byteOffset":53005124,
			"target":34962
		},
		{
			"buffer":0,
			"byteLength":1296,
			"byteOffset":53010308,
			"target":34963
		},
		{
			"buffer":0,
			"byteLength":3576,
			"byteOffset":53011604,
			"target":34962
		},
		{
			"buffer":0,
			"byteLength":3576,
			"byteOffset":53015180,
			"target":34962
		},
		{
			"buffer":0,
			"byteLength":1164,
			"byteOffset":53018756,
			"target":34963
		},
		{
			"buffer":0,
			"byteLength":2184,
			"byteOffset":53019920,
			"target":34962
		},
		{
			"buffer":0,
			"byteLength":2184,
			"byteOffset":53022104,
			"target":34962
		},
		{
			"buffer":0,
			"byteLength":1456,
			"byteOffset":53024288,
			"target":34962
		},
		{
			"buffer":0,
			"byteLength":654,
			"byteOffset":53025744,
			"target":34963
		},
		{
			"buffer":0,
			"byteLength":1440,
			"byteOffset":53026400,
			"target":34962
		},
		{
			"buffer":0,
			"byteLength":1440,
			"byteOffset":53027840,
			"target":34962
		},
		{
			"buffer":0,
			"byteLength":528,
			"byteOffset":53029280,
			"target":34963
		},
		{
			"buffer":0,
			"byteLength":1584,
			"byteOffset":53029808,
			"target":34962
		},
		{
			"buffer":0,
			"byteLength":1584,
			"byteOffset":53031392,
			"target":34962
		},
		{
			"buffer":0,
			"byteLength":480,
			"byteOffset":53032976,
			"target":34963
		},
		{
			"buffer":0,
			"byteLength":1440,
			"byteOffset":53033456,
			"target":34962
		},
		{
			"buffer":0,
			"byteLength":1440,
			"byteOffset":53034896,
			"target":34962
		},
		{
			"buffer":0,
			"byteLength":384,
			"byteOffset":53036336,
			"target":34963
		},
		{
			"buffer":0,
			"byteLength":1440,
			"byteOffset":53036720,
			"target":34962
		},
		{
			"buffer":0,
			"byteLength":1440,
			"byteOffset":53038160,
			"target":34962
		},
		{
			"buffer":0,
			"byteLength":360,
			"byteOffset":53039600,
			"target":34963
		},
		{
			"buffer":0,
			"byteLength":1200,
			"byteOffset":53039960,
			"target":34962
		},
		{
			"buffer":0,
			"byteLength":1200,
			"byteOffset":53041160,
			"target":34962
		},
		{
			"buffer":0,
			"byteLength":312,
			"byteOffset":53042360,
			"target":34963
		},
		{
			"buffer":0,
			"byteLength":1776,
			"byteOffset":53042672,
			"target":34962
		},
		{
			"buffer":0,
			"byteLength":1776,
			"byteOffset":53044448,
			"target":34962
		},
		{
			"buffer":0,
			"byteLength":1184,
			"byteOffset":53046224,
			"target":34962
		},
		{
			"buffer":0,
			"byteLength":552,
			"byteOffset":53047408,
			"target":34963
		},
		{
			"buffer":0,
			"byteLength":1764,
			"byteOffset":53047960,
			"target":34962
		},
		{
			"buffer":0,
			"byteLength":1764,
			"byteOffset":53049724,
			"target":34962
		},
		{
			"buffer":0,
			"byteLength":1176,
			"byteOffset":53051488,
			"target":34962
		},
		{
			"buffer":0,
			"byteLength":552,
			"byteOffset":53052664,
			"target":34963
		},
		{
			"buffer":0,
			"byteLength":1728,
			"byteOffset":53053216,
			"target":34962
		},
		{
			"buffer":0,
			"byteLength":1728,
			"byteOffset":53054944,
			"target":34962
		},
		{
			"buffer":0,
			"byteLength":552,
			"byteOffset":53056672,
			"target":34963
		},
		{
			"buffer":0,
			"byteLength":1440,
			"byteOffset":53057224,
			"target":34962
		},
		{
			"buffer":0,
			"byteLength":1440,
			"byteOffset":53058664,
			"target":34962
		},
		{
			"buffer":0,
			"byteLength":456,
			"byteOffset":53060104,
			"target":34963
		},
		{
			"buffer":0,
			"byteLength":288,
			"byteOffset":53060560,
			"target":34962
		},
		{
			"buffer":0,
			"byteLength":288,
			"byteOffset":53060848,
			"target":34962
		},
		{
			"buffer":0,
			"byteLength":72,
			"byteOffset":53061136,
			"target":34963
		},
		{
			"buffer":0,
			"byteLength":288,
			"byteOffset":53061208,
			"target":34962
		},
		{
			"buffer":0,
			"byteLength":288,
			"byteOffset":53061496,
			"target":34962
		},
		{
			"buffer":0,
			"byteLength":72,
			"byteOffset":53061784,
			"target":34963
		},
		{
			"buffer":0,
			"byteLength":288,
			"byteOffset":53061856,
			"target":34962
		},
		{
			"buffer":0,
			"byteLength":288,
			"byteOffset":53062144,
			"target":34962
		},
		{
			"buffer":0,
			"byteLength":72,
			"byteOffset":53062432,
			"target":34963
		},
		{
			"buffer":0,
			"byteLength":288,
			"byteOffset":53062504,
			"target":34962
		},
		{
			"buffer":0,
			"byteLength":288,
			"byteOffset":53062792,
			"target":34962
		}
	],
	"buffers":[
		{
			"byteLength":53063080,
			"uri":"house_uv.bin"
		}
	]
}
